<mxfile host="app.diagrams.net" agent="Mozilla/5.0 (Windows NT 10.0; Win64; x64) AppleWebKit/537.36 (KHTML, like Gecko) Chrome/131.0.0.0 Safari/537.36 Edg/131.0.0.0" version="24.9.1">
  <diagram name="第 1 页" id="3O0XWOKUqjVaaDv5SupN">
    <mxGraphModel dx="946" dy="601" grid="1" gridSize="10" guides="1" tooltips="1" connect="1" arrows="1" fold="1" page="1" pageScale="1" pageWidth="827" pageHeight="1169" math="0" shadow="0">
      <root>
        <mxCell id="0" />
        <mxCell id="1" parent="0" />
        <mxCell id="Mdvtu1Rmtq127ll1MaoF-1" value="用户" style="swimlane;whiteSpace=wrap;html=1;movable=1;resizable=1;rotatable=1;deletable=1;editable=1;locked=0;connectable=1;" vertex="1" parent="1">
          <mxGeometry x="30" y="120" width="340" height="650" as="geometry" />
        </mxCell>
        <mxCell id="Mdvtu1Rmtq127ll1MaoF-5" value="用户输入用户名和密码" style="rounded=1;whiteSpace=wrap;html=1;" vertex="1" parent="Mdvtu1Rmtq127ll1MaoF-1">
          <mxGeometry x="80" y="110" width="120" height="60" as="geometry" />
        </mxCell>
        <mxCell id="Mdvtu1Rmtq127ll1MaoF-15" style="edgeStyle=orthogonalEdgeStyle;rounded=0;orthogonalLoop=1;jettySize=auto;html=1;exitX=0.5;exitY=1;exitDx=0;exitDy=0;entryX=0.5;entryY=0;entryDx=0;entryDy=0;" edge="1" parent="Mdvtu1Rmtq127ll1MaoF-1" source="Mdvtu1Rmtq127ll1MaoF-6" target="Mdvtu1Rmtq127ll1MaoF-5">
          <mxGeometry relative="1" as="geometry" />
        </mxCell>
        <mxCell id="Mdvtu1Rmtq127ll1MaoF-6" value="" style="ellipse;whiteSpace=wrap;html=1;aspect=fixed;fillColor=#000000;" vertex="1" parent="Mdvtu1Rmtq127ll1MaoF-1">
          <mxGeometry x="120" y="50" width="30" height="30" as="geometry" />
        </mxCell>
        <mxCell id="Mdvtu1Rmtq127ll1MaoF-37" value="" style="edgeStyle=orthogonalEdgeStyle;rounded=0;orthogonalLoop=1;jettySize=auto;html=1;" edge="1" parent="Mdvtu1Rmtq127ll1MaoF-1" source="Mdvtu1Rmtq127ll1MaoF-26" target="Mdvtu1Rmtq127ll1MaoF-36">
          <mxGeometry relative="1" as="geometry" />
        </mxCell>
        <mxCell id="Mdvtu1Rmtq127ll1MaoF-26" value="是否忘记密码" style="rhombus;whiteSpace=wrap;html=1;rounded=1;" vertex="1" parent="Mdvtu1Rmtq127ll1MaoF-1">
          <mxGeometry x="100" y="370" width="80" height="80" as="geometry" />
        </mxCell>
        <mxCell id="Mdvtu1Rmtq127ll1MaoF-33" value="Text" style="text;strokeColor=none;align=center;fillColor=none;html=1;verticalAlign=middle;whiteSpace=wrap;rounded=0;" vertex="1" parent="Mdvtu1Rmtq127ll1MaoF-1">
          <mxGeometry x="250" y="390" width="60" height="30" as="geometry" />
        </mxCell>
        <mxCell id="Mdvtu1Rmtq127ll1MaoF-36" value="未忘记密码，正常登录，欢迎光临机票预订系统" style="whiteSpace=wrap;html=1;rounded=1;" vertex="1" parent="Mdvtu1Rmtq127ll1MaoF-1">
          <mxGeometry x="80" y="500" width="120" height="60" as="geometry" />
        </mxCell>
        <mxCell id="Mdvtu1Rmtq127ll1MaoF-38" value="" style="ellipse;html=1;shape=endState;fillColor=#000000;strokeColor=#ff0000;" vertex="1" parent="Mdvtu1Rmtq127ll1MaoF-1">
          <mxGeometry x="125" y="590" width="30" height="30" as="geometry" />
        </mxCell>
        <mxCell id="Mdvtu1Rmtq127ll1MaoF-40" style="edgeStyle=orthogonalEdgeStyle;rounded=0;orthogonalLoop=1;jettySize=auto;html=1;exitX=0.5;exitY=1;exitDx=0;exitDy=0;entryX=0.517;entryY=0.267;entryDx=0;entryDy=0;entryPerimeter=0;" edge="1" parent="Mdvtu1Rmtq127ll1MaoF-1" source="Mdvtu1Rmtq127ll1MaoF-36" target="Mdvtu1Rmtq127ll1MaoF-38">
          <mxGeometry relative="1" as="geometry" />
        </mxCell>
        <mxCell id="Mdvtu1Rmtq127ll1MaoF-2" value="后台" style="swimlane;whiteSpace=wrap;html=1;movable=1;resizable=1;rotatable=1;deletable=1;editable=1;locked=0;connectable=1;" vertex="1" parent="1">
          <mxGeometry x="370" y="120" width="435" height="650" as="geometry" />
        </mxCell>
        <mxCell id="Mdvtu1Rmtq127ll1MaoF-30" value="重置密码，需要用户填写验证信息" style="whiteSpace=wrap;html=1;rounded=1;" vertex="1" parent="Mdvtu1Rmtq127ll1MaoF-2">
          <mxGeometry x="115" y="420" width="120" height="60" as="geometry" />
        </mxCell>
        <mxCell id="Mdvtu1Rmtq127ll1MaoF-4" value="用户登录" style="text;strokeColor=none;align=center;fillColor=none;html=1;verticalAlign=middle;whiteSpace=wrap;rounded=0;" vertex="1" parent="1">
          <mxGeometry x="330" y="50" width="60" height="30" as="geometry" />
        </mxCell>
        <mxCell id="Mdvtu1Rmtq127ll1MaoF-12" value="" style="edgeStyle=orthogonalEdgeStyle;rounded=0;orthogonalLoop=1;jettySize=auto;html=1;" edge="1" parent="1" source="Mdvtu1Rmtq127ll1MaoF-10" target="Mdvtu1Rmtq127ll1MaoF-11">
          <mxGeometry relative="1" as="geometry" />
        </mxCell>
        <mxCell id="Mdvtu1Rmtq127ll1MaoF-10" value="系统检查用户是否存在" style="rounded=1;whiteSpace=wrap;html=1;" vertex="1" parent="1">
          <mxGeometry x="485" y="230" width="120" height="60" as="geometry" />
        </mxCell>
        <mxCell id="Mdvtu1Rmtq127ll1MaoF-14" value="" style="edgeStyle=orthogonalEdgeStyle;rounded=0;orthogonalLoop=1;jettySize=auto;html=1;" edge="1" parent="1" source="Mdvtu1Rmtq127ll1MaoF-11" target="Mdvtu1Rmtq127ll1MaoF-13">
          <mxGeometry relative="1" as="geometry">
            <Array as="points">
              <mxPoint x="410" y="345" />
              <mxPoint x="410" y="390" />
            </Array>
          </mxGeometry>
        </mxCell>
        <mxCell id="Mdvtu1Rmtq127ll1MaoF-18" value="" style="edgeStyle=orthogonalEdgeStyle;rounded=0;orthogonalLoop=1;jettySize=auto;html=1;" edge="1" parent="1" source="Mdvtu1Rmtq127ll1MaoF-11" target="Mdvtu1Rmtq127ll1MaoF-17">
          <mxGeometry relative="1" as="geometry" />
        </mxCell>
        <mxCell id="Mdvtu1Rmtq127ll1MaoF-11" value="" style="rhombus;whiteSpace=wrap;html=1;rounded=1;" vertex="1" parent="1">
          <mxGeometry x="512.5" y="320" width="65" height="50" as="geometry" />
        </mxCell>
        <mxCell id="Mdvtu1Rmtq127ll1MaoF-27" value="" style="edgeStyle=orthogonalEdgeStyle;rounded=0;orthogonalLoop=1;jettySize=auto;html=1;" edge="1" parent="1" source="Mdvtu1Rmtq127ll1MaoF-13" target="Mdvtu1Rmtq127ll1MaoF-26">
          <mxGeometry relative="1" as="geometry" />
        </mxCell>
        <mxCell id="Mdvtu1Rmtq127ll1MaoF-13" value="显示存在，用户需要输入账户和密码" style="whiteSpace=wrap;html=1;rounded=1;" vertex="1" parent="1">
          <mxGeometry x="110" y="360" width="120" height="60" as="geometry" />
        </mxCell>
        <mxCell id="Mdvtu1Rmtq127ll1MaoF-16" style="edgeStyle=orthogonalEdgeStyle;rounded=0;orthogonalLoop=1;jettySize=auto;html=1;exitX=1;exitY=0.5;exitDx=0;exitDy=0;entryX=0;entryY=0.75;entryDx=0;entryDy=0;" edge="1" parent="1" source="Mdvtu1Rmtq127ll1MaoF-5" target="Mdvtu1Rmtq127ll1MaoF-10">
          <mxGeometry relative="1" as="geometry">
            <Array as="points">
              <mxPoint x="230" y="250" />
              <mxPoint x="358" y="250" />
              <mxPoint x="358" y="275" />
            </Array>
          </mxGeometry>
        </mxCell>
        <mxCell id="Mdvtu1Rmtq127ll1MaoF-17" value="显示不存在，用户需要重新输入" style="whiteSpace=wrap;html=1;rounded=1;" vertex="1" parent="1">
          <mxGeometry x="485" y="440" width="120" height="60" as="geometry" />
        </mxCell>
        <mxCell id="Mdvtu1Rmtq127ll1MaoF-32" style="edgeStyle=orthogonalEdgeStyle;rounded=0;orthogonalLoop=1;jettySize=auto;html=1;exitX=1;exitY=0.5;exitDx=0;exitDy=0;" edge="1" parent="1" source="Mdvtu1Rmtq127ll1MaoF-26" target="Mdvtu1Rmtq127ll1MaoF-30">
          <mxGeometry relative="1" as="geometry" />
        </mxCell>
        <mxCell id="Mdvtu1Rmtq127ll1MaoF-35" value="忘记密码" style="edgeLabel;html=1;align=center;verticalAlign=middle;resizable=0;points=[];" vertex="1" connectable="0" parent="Mdvtu1Rmtq127ll1MaoF-32">
          <mxGeometry x="-0.3524" y="3" relative="1" as="geometry">
            <mxPoint as="offset" />
          </mxGeometry>
        </mxCell>
        <mxCell id="Mdvtu1Rmtq127ll1MaoF-42" style="edgeStyle=orthogonalEdgeStyle;rounded=0;orthogonalLoop=1;jettySize=auto;html=1;exitX=0;exitY=0;exitDx=0;exitDy=0;entryX=1;entryY=1;entryDx=0;entryDy=0;" edge="1" parent="1" source="Mdvtu1Rmtq127ll1MaoF-30" target="Mdvtu1Rmtq127ll1MaoF-13">
          <mxGeometry relative="1" as="geometry">
            <Array as="points">
              <mxPoint x="420" y="540" />
              <mxPoint x="420" y="480" />
              <mxPoint x="230" y="480" />
            </Array>
          </mxGeometry>
        </mxCell>
      </root>
    </mxGraphModel>
  </diagram>
</mxfile>
